<?xml version="1.0" encoding="UTF-8" standalone="no" ?>
<!DOCTYPE svg PUBLIC "-//W3C//DTD SVG 1.1//EN" "http://www.w3.org/Graphics/SVG/1.1/DTD/svg11.dtd">
<svg xmlns="http://www.w3.org/2000/svg" xmlns:xlink="http://www.w3.org/1999/xlink" version="1.1" width="457" height="457" viewBox="0 0 457 457" xml:space="preserve">
<desc>Created with Fabric.js 4.6.0</desc>
<defs>
</defs>
<g transform="matrix(1 0 0 1 228.87 228.87)" id="NsSgMjWZMgpn_zDsVEjF3"  >
<g style="" vector-effect="non-scaling-stroke"   >
		<g transform="matrix(1 0 0 1 0 0)" id="S7wqDX_V9na69Y_WrzJo3"  >
<path style="stroke: none; stroke-width: 1; stroke-dasharray: none; stroke-linecap: butt; stroke-dashoffset: 0; stroke-linejoin: miter; stroke-miterlimit: 4; fill: rgb(37,84,87); fill-rule: evenodd; opacity: 1;" vector-effect="non-scaling-stroke"  transform=" translate(-227.5, -227.5)" d="M 0 0 L 0 455 L 455 455 L 455 0 L 0 0 z M 384.814 100.68 L 331.356 357.81600000000003 C 330.097 363.88700000000006 322.978 366.63800000000003 317.955 362.98800000000006 L 244.98 310.00700000000006 C 240.54999999999998 306.7900000000001 234.509 306.96100000000007 230.268 310.41900000000004 L 189.808 343.40000000000003 C 185.113 347.24 178.03699999999998 345.1 176.239 339.317 L 148.145 248.966 L 75.56200000000001 221.877 C 68.18900000000001 219.115 68.126 208.70600000000002 75.47800000000001 205.87400000000002 L 373.36 90.959 C 379.675 88.517 386.19 94.049 384.814 100.68 z" stroke-linecap="round" />
</g>
		<g transform="matrix(1 0 0 1 13.64 -0.52)" id="bLuZKzCdl9pOW1spvYtws"  >
<path style="stroke: none; stroke-width: 1; stroke-dasharray: none; stroke-linecap: butt; stroke-dashoffset: 0; stroke-linejoin: miter; stroke-miterlimit: 4; fill: rgb(37,84,87); fill-rule: evenodd; opacity: 1;" vector-effect="non-scaling-stroke"  transform=" translate(-241.14, -226.98)" d="M 313.567 147.179 L 171.713 234.546 C 166.27599999999998 237.90099999999998 163.71699999999998 244.46699999999998 165.471 250.614 L 180.808 304.505 C 181.899 308.323 187.439 307.933 187.97 303.988 L 191.956 274.435 C 192.70899999999997 268.871 195.362 263.742 199.47799999999998 259.913 L 316.54699999999997 151.091 C 318.739 149.061 316.115 145.614 313.567 147.179 z" stroke-linecap="round" />
</g>
</g>
</g>
</svg>